<mxfile host="app.diagrams.net" modified="2023-01-13T08:28:46.553Z" agent="5.0 (Macintosh; Intel Mac OS X 10_14_6) AppleWebKit/537.36 (KHTML, like Gecko) Chrome/108.0.0.0 Safari/537.36" version="20.8.3" etag="LYTIGSi5GIyi_drcf3y5" type="github">
  <diagram id="gBVBJpbxsoqlgOK4VZeo" name="第 1 页">
    <mxGraphModel dx="1194" dy="1855" grid="1" gridSize="10" guides="1" tooltips="1" connect="1" arrows="1" fold="1" page="1" pageScale="1" pageWidth="827" pageHeight="1169" math="0" shadow="0">
      <root>
        <mxCell id="0" />
        <mxCell id="1" parent="0" />
        <mxCell id="R_mdDU6zKTO6Eg03_8yZ-3" value="" style="edgeStyle=orthogonalEdgeStyle;rounded=0;orthogonalLoop=1;jettySize=auto;html=1;fillColor=#d5e8d4;strokeColor=#82b366;" edge="1" parent="1" source="R_mdDU6zKTO6Eg03_8yZ-1" target="R_mdDU6zKTO6Eg03_8yZ-2">
          <mxGeometry relative="1" as="geometry" />
        </mxCell>
        <mxCell id="R_mdDU6zKTO6Eg03_8yZ-1" value="启动" style="ellipse;whiteSpace=wrap;html=1;fillColor=#d5e8d4;strokeColor=#82b366;" vertex="1" parent="1">
          <mxGeometry x="120" y="40" width="40" height="30" as="geometry" />
        </mxCell>
        <mxCell id="R_mdDU6zKTO6Eg03_8yZ-5" value="" style="edgeStyle=orthogonalEdgeStyle;rounded=0;orthogonalLoop=1;jettySize=auto;html=1;fillColor=#d5e8d4;strokeColor=#82b366;" edge="1" parent="1" source="R_mdDU6zKTO6Eg03_8yZ-2" target="R_mdDU6zKTO6Eg03_8yZ-4">
          <mxGeometry relative="1" as="geometry" />
        </mxCell>
        <mxCell id="R_mdDU6zKTO6Eg03_8yZ-2" value="初始化&lt;span style=&quot;color: rgb(50, 50, 50); font-family: 微软雅黑; font-size: 13px; background-color: rgba(255, 255, 255, 0.01);&quot;&gt;NacosConfigService&lt;/span&gt;" style="whiteSpace=wrap;html=1;fillColor=#d5e8d4;strokeColor=#82b366;" vertex="1" parent="1">
          <mxGeometry x="80" y="100" width="120" height="60" as="geometry" />
        </mxCell>
        <mxCell id="R_mdDU6zKTO6Eg03_8yZ-9" value="" style="edgeStyle=orthogonalEdgeStyle;rounded=0;orthogonalLoop=1;jettySize=auto;html=1;fillColor=#d5e8d4;strokeColor=#82b366;" edge="1" parent="1" source="R_mdDU6zKTO6Eg03_8yZ-4" target="R_mdDU6zKTO6Eg03_8yZ-8">
          <mxGeometry relative="1" as="geometry" />
        </mxCell>
        <mxCell id="R_mdDU6zKTO6Eg03_8yZ-4" value="&lt;span style=&quot;color: rgb(50, 50, 50); font-family: 微软雅黑; font-size: 13px; background-color: rgba(255, 255, 255, 0.01);&quot;&gt;初始化ClientWoker&lt;/span&gt;" style="whiteSpace=wrap;html=1;fillColor=#d5e8d4;strokeColor=#82b366;" vertex="1" parent="1">
          <mxGeometry x="80" y="200" width="120" height="40" as="geometry" />
        </mxCell>
        <mxCell id="R_mdDU6zKTO6Eg03_8yZ-11" value="" style="edgeStyle=orthogonalEdgeStyle;rounded=0;orthogonalLoop=1;jettySize=auto;html=1;fillColor=#d5e8d4;strokeColor=#82b366;" edge="1" parent="1" source="R_mdDU6zKTO6Eg03_8yZ-8" target="R_mdDU6zKTO6Eg03_8yZ-10">
          <mxGeometry relative="1" as="geometry" />
        </mxCell>
        <mxCell id="R_mdDU6zKTO6Eg03_8yZ-8" value="&lt;span style=&quot;color: rgb(50, 50, 50); font-family: 微软雅黑; font-size: 13px; background-color: rgba(255, 255, 255, 0.01);&quot;&gt;初始化一个单线程每10ms执行LongPollingRunnable&lt;/span&gt;" style="whiteSpace=wrap;html=1;fillColor=#d5e8d4;strokeColor=#82b366;" vertex="1" parent="1">
          <mxGeometry x="20" y="280" width="240" height="90" as="geometry" />
        </mxCell>
        <mxCell id="R_mdDU6zKTO6Eg03_8yZ-10" value="&lt;span style=&quot;color: rgb(50, 50, 50); font-family: 微软雅黑; font-size: 13px; background-color: rgba(255, 255, 255, 0.01);&quot;&gt;1.检查本地配置&lt;/span&gt;" style="whiteSpace=wrap;html=1;fillColor=#d5e8d4;strokeColor=#82b366;" vertex="1" parent="1">
          <mxGeometry x="320" y="240" width="120" height="60" as="geometry" />
        </mxCell>
        <mxCell id="R_mdDU6zKTO6Eg03_8yZ-13" value="" style="endArrow=classic;html=1;rounded=0;exitX=1;exitY=0.5;exitDx=0;exitDy=0;fillColor=#d5e8d4;strokeColor=#82b366;" edge="1" parent="1" source="R_mdDU6zKTO6Eg03_8yZ-8">
          <mxGeometry width="50" height="50" relative="1" as="geometry">
            <mxPoint x="390" y="340" as="sourcePoint" />
            <mxPoint x="330" y="370" as="targetPoint" />
            <Array as="points">
              <mxPoint x="290" y="325" />
              <mxPoint x="290" y="370" />
            </Array>
          </mxGeometry>
        </mxCell>
        <mxCell id="R_mdDU6zKTO6Eg03_8yZ-14" value="&lt;span style=&quot;color: rgb(50, 50, 50); font-family: 微软雅黑; font-size: 13px; background-color: rgba(255, 255, 255, 0.01);&quot;&gt;2.长轮询方式去服务端获取变更的dataId+Group&lt;/span&gt;" style="rounded=0;whiteSpace=wrap;html=1;fillColor=#d5e8d4;strokeColor=#82b366;" vertex="1" parent="1">
          <mxGeometry x="320" y="340" width="120" height="60" as="geometry" />
        </mxCell>
        <mxCell id="R_mdDU6zKTO6Eg03_8yZ-17" value="" style="edgeStyle=orthogonalEdgeStyle;rounded=0;orthogonalLoop=1;jettySize=auto;html=1;fillColor=#dae8fc;strokeColor=#6c8ebf;" edge="1" parent="1" source="R_mdDU6zKTO6Eg03_8yZ-15" target="R_mdDU6zKTO6Eg03_8yZ-16">
          <mxGeometry relative="1" as="geometry" />
        </mxCell>
        <mxCell id="R_mdDU6zKTO6Eg03_8yZ-15" value="&lt;span style=&quot;color: rgb(50, 50, 50); font-family: 微软雅黑; font-size: 13px; background-color: rgba(255, 255, 255, 0.01);&quot;&gt;服务端则需要拿到变更的配置信息并开始执行长轮询&lt;/span&gt;" style="rounded=0;whiteSpace=wrap;html=1;fillColor=#dae8fc;strokeColor=#6c8ebf;" vertex="1" parent="1">
          <mxGeometry x="620" y="25" width="160" height="55" as="geometry" />
        </mxCell>
        <mxCell id="R_mdDU6zKTO6Eg03_8yZ-19" value="" style="edgeStyle=orthogonalEdgeStyle;rounded=0;orthogonalLoop=1;jettySize=auto;html=1;fillColor=#dae8fc;strokeColor=#6c8ebf;" edge="1" parent="1" source="R_mdDU6zKTO6Eg03_8yZ-16" target="R_mdDU6zKTO6Eg03_8yZ-18">
          <mxGeometry relative="1" as="geometry" />
        </mxCell>
        <mxCell id="R_mdDU6zKTO6Eg03_8yZ-16" value="&lt;span style=&quot;color: rgb(50, 50, 50); font-family: 微软雅黑; font-size: 13px; background-color: rgba(255, 255, 255, 0.01);&quot;&gt;如果是长轮询，则调用addLonPollClient&lt;/span&gt;" style="rhombus;whiteSpace=wrap;html=1;rounded=0;fillColor=#dae8fc;strokeColor=#6c8ebf;" vertex="1" parent="1">
          <mxGeometry x="620" y="147.5" width="160" height="102.5" as="geometry" />
        </mxCell>
        <mxCell id="R_mdDU6zKTO6Eg03_8yZ-21" style="edgeStyle=orthogonalEdgeStyle;rounded=0;orthogonalLoop=1;jettySize=auto;html=1;exitX=0.5;exitY=1;exitDx=0;exitDy=0;fillColor=#dae8fc;strokeColor=#6c8ebf;" edge="1" parent="1" source="R_mdDU6zKTO6Eg03_8yZ-18" target="R_mdDU6zKTO6Eg03_8yZ-20">
          <mxGeometry relative="1" as="geometry" />
        </mxCell>
        <mxCell id="R_mdDU6zKTO6Eg03_8yZ-18" value="&lt;span style=&quot;color: rgb(50, 50, 50); font-family: 微软雅黑; font-size: 13px; background-color: rgba(255, 255, 255, 0.01);&quot;&gt;获取超时时间30s 提前返回500毫秒&lt;/span&gt;" style="whiteSpace=wrap;html=1;rounded=0;fillColor=#dae8fc;strokeColor=#6c8ebf;" vertex="1" parent="1">
          <mxGeometry x="640" y="300" width="120" height="60" as="geometry" />
        </mxCell>
        <mxCell id="R_mdDU6zKTO6Eg03_8yZ-23" style="edgeStyle=orthogonalEdgeStyle;rounded=0;orthogonalLoop=1;jettySize=auto;html=1;exitX=0.5;exitY=1;exitDx=0;exitDy=0;entryX=0.5;entryY=0;entryDx=0;entryDy=0;" edge="1" parent="1" source="R_mdDU6zKTO6Eg03_8yZ-20" target="R_mdDU6zKTO6Eg03_8yZ-22">
          <mxGeometry relative="1" as="geometry" />
        </mxCell>
        <mxCell id="R_mdDU6zKTO6Eg03_8yZ-20" value="&lt;span style=&quot;color: rgb(50, 50, 50); font-family: 微软雅黑; font-size: 13px; background-color: rgba(255, 255, 255, 0.01);&quot;&gt;单线程池里的线程在29.5秒后执行ClientLongPolling并将请求加入到allSubs队列中&lt;/span&gt;" style="whiteSpace=wrap;html=1;rounded=0;fillColor=#dae8fc;strokeColor=#6c8ebf;" vertex="1" parent="1">
          <mxGeometry x="570" y="410" width="260" height="70" as="geometry" />
        </mxCell>
        <mxCell id="R_mdDU6zKTO6Eg03_8yZ-25" style="edgeStyle=orthogonalEdgeStyle;rounded=0;orthogonalLoop=1;jettySize=auto;html=1;exitX=0.5;exitY=1;exitDx=0;exitDy=0;entryX=0.5;entryY=0;entryDx=0;entryDy=0;" edge="1" parent="1" source="R_mdDU6zKTO6Eg03_8yZ-22" target="R_mdDU6zKTO6Eg03_8yZ-24">
          <mxGeometry relative="1" as="geometry" />
        </mxCell>
        <mxCell id="R_mdDU6zKTO6Eg03_8yZ-22" value="&lt;span style=&quot;color: rgb(50, 50, 50); font-family: 微软雅黑; font-size: 13px; background-color: rgba(255, 255, 255, 0.01);&quot;&gt;返回给客户端结果&lt;/span&gt;" style="whiteSpace=wrap;html=1;rounded=0;fillColor=#dae8fc;strokeColor=#6c8ebf;" vertex="1" parent="1">
          <mxGeometry x="640" y="540" width="120" height="60" as="geometry" />
        </mxCell>
        <mxCell id="R_mdDU6zKTO6Eg03_8yZ-28" value="" style="edgeStyle=orthogonalEdgeStyle;rounded=0;orthogonalLoop=1;jettySize=auto;html=1;fillColor=#d5e8d4;strokeColor=#82b366;" edge="1" parent="1" source="R_mdDU6zKTO6Eg03_8yZ-24" target="R_mdDU6zKTO6Eg03_8yZ-26">
          <mxGeometry relative="1" as="geometry" />
        </mxCell>
        <mxCell id="R_mdDU6zKTO6Eg03_8yZ-24" value="&lt;span style=&quot;color: rgb(50, 50, 50); font-family: 微软雅黑; font-size: 13px; background-color: rgba(255, 255, 255, 0.01);&quot;&gt;收到变更的dataId+Group 再去服务端获取最新的配置&lt;/span&gt;" style="whiteSpace=wrap;html=1;rounded=0;fillColor=#d5e8d4;strokeColor=#82b366;" vertex="1" parent="1">
          <mxGeometry x="610" y="640" width="180" height="80" as="geometry" />
        </mxCell>
        <mxCell id="R_mdDU6zKTO6Eg03_8yZ-30" value="" style="edgeStyle=orthogonalEdgeStyle;rounded=0;orthogonalLoop=1;jettySize=auto;html=1;fillColor=#d5e8d4;strokeColor=#82b366;" edge="1" parent="1" source="R_mdDU6zKTO6Eg03_8yZ-26" target="R_mdDU6zKTO6Eg03_8yZ-29">
          <mxGeometry relative="1" as="geometry" />
        </mxCell>
        <mxCell id="R_mdDU6zKTO6Eg03_8yZ-26" value="&lt;span style=&quot;color: rgb(50, 50, 50); font-family: 微软雅黑; font-size: 13px; background-color: rgba(255, 255, 255, 0.01);&quot;&gt;更新本地数据cacheData并发送数据变更消息&lt;/span&gt;" style="whiteSpace=wrap;html=1;rounded=0;fillColor=#d5e8d4;strokeColor=#82b366;" vertex="1" parent="1">
          <mxGeometry x="640" y="770" width="120" height="60" as="geometry" />
        </mxCell>
        <mxCell id="R_mdDU6zKTO6Eg03_8yZ-29" value="End" style="ellipse;whiteSpace=wrap;html=1;rounded=0;fillColor=#d5e8d4;strokeColor=#82b366;" vertex="1" parent="1">
          <mxGeometry x="660" y="880" width="80" height="40" as="geometry" />
        </mxCell>
        <mxCell id="R_mdDU6zKTO6Eg03_8yZ-34" value="" style="edgeStyle=orthogonalEdgeStyle;rounded=0;orthogonalLoop=1;jettySize=auto;html=1;fillColor=#dae8fc;strokeColor=#6c8ebf;" edge="1" parent="1" source="R_mdDU6zKTO6Eg03_8yZ-31" target="R_mdDU6zKTO6Eg03_8yZ-32">
          <mxGeometry relative="1" as="geometry" />
        </mxCell>
        <mxCell id="R_mdDU6zKTO6Eg03_8yZ-31" value="&lt;span style=&quot;color: rgb(50, 50, 50); font-family: 微软雅黑; font-size: 13px; background-color: rgba(255, 255, 255, 0.01);&quot;&gt;修改配置&lt;/span&gt;" style="rounded=0;whiteSpace=wrap;html=1;fillColor=#dae8fc;strokeColor=#6c8ebf;" vertex="1" parent="1">
          <mxGeometry x="1000" y="20" width="120" height="60" as="geometry" />
        </mxCell>
        <mxCell id="R_mdDU6zKTO6Eg03_8yZ-36" value="" style="edgeStyle=orthogonalEdgeStyle;rounded=0;orthogonalLoop=1;jettySize=auto;html=1;fillColor=#dae8fc;strokeColor=#6c8ebf;" edge="1" parent="1" source="R_mdDU6zKTO6Eg03_8yZ-32" target="R_mdDU6zKTO6Eg03_8yZ-35">
          <mxGeometry relative="1" as="geometry" />
        </mxCell>
        <mxCell id="R_mdDU6zKTO6Eg03_8yZ-32" value="&lt;span style=&quot;color: rgb(50, 50, 50); font-family: 微软雅黑; font-size: 13px; background-color: rgba(255, 255, 255, 0.01);&quot;&gt;发送LocalDataChangeEvent消息&lt;/span&gt;" style="whiteSpace=wrap;html=1;rounded=0;fillColor=#dae8fc;strokeColor=#6c8ebf;" vertex="1" parent="1">
          <mxGeometry x="940" y="130" width="240" height="40" as="geometry" />
        </mxCell>
        <mxCell id="R_mdDU6zKTO6Eg03_8yZ-35" value="&lt;span style=&quot;color: rgb(50, 50, 50); font-family: 微软雅黑; font-size: 13px; background-color: rgba(255, 255, 255, 0.01);&quot;&gt;接收消息并遍历allSubs队列找到匹配的客户端请求&lt;/span&gt;" style="whiteSpace=wrap;html=1;rounded=0;fillColor=#dae8fc;strokeColor=#6c8ebf;" vertex="1" parent="1">
          <mxGeometry x="990" y="200" width="140" height="70" as="geometry" />
        </mxCell>
        <mxCell id="R_mdDU6zKTO6Eg03_8yZ-37" value="" style="endArrow=classic;html=1;rounded=0;exitX=0.5;exitY=1;exitDx=0;exitDy=0;entryX=1;entryY=0.5;entryDx=0;entryDy=0;" edge="1" parent="1" source="R_mdDU6zKTO6Eg03_8yZ-35" target="R_mdDU6zKTO6Eg03_8yZ-29">
          <mxGeometry width="50" height="50" relative="1" as="geometry">
            <mxPoint x="1070" y="355" as="sourcePoint" />
            <mxPoint x="1060" y="690" as="targetPoint" />
            <Array as="points">
              <mxPoint x="1060" y="900" />
            </Array>
          </mxGeometry>
        </mxCell>
        <mxCell id="R_mdDU6zKTO6Eg03_8yZ-39" value="两种方式触发客户端返回" style="rounded=1;whiteSpace=wrap;html=1;" vertex="1" parent="1">
          <mxGeometry x="840" y="-210" width="110" height="40" as="geometry" />
        </mxCell>
        <mxCell id="R_mdDU6zKTO6Eg03_8yZ-40" value="" style="endArrow=classic;html=1;rounded=0;exitX=0;exitY=1;exitDx=0;exitDy=0;entryX=0.5;entryY=0;entryDx=0;entryDy=0;" edge="1" parent="1" source="R_mdDU6zKTO6Eg03_8yZ-39" target="R_mdDU6zKTO6Eg03_8yZ-15">
          <mxGeometry width="50" height="50" relative="1" as="geometry">
            <mxPoint x="840" y="-160" as="sourcePoint" />
            <mxPoint x="770" y="-120" as="targetPoint" />
          </mxGeometry>
        </mxCell>
        <mxCell id="R_mdDU6zKTO6Eg03_8yZ-41" value="" style="endArrow=classic;html=1;rounded=0;exitX=1;exitY=1;exitDx=0;exitDy=0;entryX=0.5;entryY=0;entryDx=0;entryDy=0;" edge="1" parent="1" source="R_mdDU6zKTO6Eg03_8yZ-39" target="R_mdDU6zKTO6Eg03_8yZ-31">
          <mxGeometry width="50" height="50" relative="1" as="geometry">
            <mxPoint x="940" y="-100" as="sourcePoint" />
            <mxPoint x="990" y="-150" as="targetPoint" />
          </mxGeometry>
        </mxCell>
        <mxCell id="R_mdDU6zKTO6Eg03_8yZ-42" value="客户端" style="rounded=1;whiteSpace=wrap;html=1;fillColor=#d5e8d4;strokeColor=#82b366;" vertex="1" parent="1">
          <mxGeometry x="20" y="470" width="120" height="60" as="geometry" />
        </mxCell>
        <mxCell id="R_mdDU6zKTO6Eg03_8yZ-43" value="服务端" style="rounded=1;whiteSpace=wrap;html=1;fillColor=#dae8fc;strokeColor=#6c8ebf;" vertex="1" parent="1">
          <mxGeometry x="20" y="590" width="120" height="60" as="geometry" />
        </mxCell>
        <mxCell id="R_mdDU6zKTO6Eg03_8yZ-46" value="" style="edgeStyle=orthogonalEdgeStyle;rounded=0;orthogonalLoop=1;jettySize=auto;html=1;" edge="1" parent="1" source="R_mdDU6zKTO6Eg03_8yZ-44" target="R_mdDU6zKTO6Eg03_8yZ-45">
          <mxGeometry relative="1" as="geometry" />
        </mxCell>
        <mxCell id="R_mdDU6zKTO6Eg03_8yZ-44" value="&lt;span style=&quot;color: rgb(50, 50, 50); font-family: 微软雅黑; font-size: 13px; background-color: rgba(255, 255, 255, 0.01);&quot;&gt;客户端入口 spring-cloud-starter-alibaba-nacos-config&lt;/span&gt;" style="rounded=0;whiteSpace=wrap;html=1;" vertex="1" parent="1">
          <mxGeometry x="30" y="950" width="330" height="50" as="geometry" />
        </mxCell>
        <mxCell id="R_mdDU6zKTO6Eg03_8yZ-48" value="" style="edgeStyle=orthogonalEdgeStyle;rounded=0;orthogonalLoop=1;jettySize=auto;html=1;" edge="1" parent="1" source="R_mdDU6zKTO6Eg03_8yZ-45" target="R_mdDU6zKTO6Eg03_8yZ-47">
          <mxGeometry relative="1" as="geometry" />
        </mxCell>
        <mxCell id="R_mdDU6zKTO6Eg03_8yZ-45" value="&lt;span style=&quot;color: rgb(50, 50, 50); font-family: 微软雅黑; font-size: 13px; background-color: rgba(255, 255, 255, 0.01);&quot;&gt;NacosConfigBootstrapCongiguration&lt;/span&gt;" style="whiteSpace=wrap;html=1;rounded=0;" vertex="1" parent="1">
          <mxGeometry x="20" y="1040" width="350" height="35" as="geometry" />
        </mxCell>
        <mxCell id="R_mdDU6zKTO6Eg03_8yZ-50" value="" style="edgeStyle=orthogonalEdgeStyle;rounded=0;orthogonalLoop=1;jettySize=auto;html=1;" edge="1" parent="1" source="R_mdDU6zKTO6Eg03_8yZ-47" target="R_mdDU6zKTO6Eg03_8yZ-49">
          <mxGeometry relative="1" as="geometry" />
        </mxCell>
        <mxCell id="R_mdDU6zKTO6Eg03_8yZ-47" value="&lt;span style=&quot;color: rgb(50, 50, 50); font-family: 微软雅黑; font-size: 13px; background-color: rgba(255, 255, 255, 0.01);&quot;&gt;NacosConfigManager&lt;/span&gt;" style="whiteSpace=wrap;html=1;rounded=0;" vertex="1" parent="1">
          <mxGeometry x="50" y="1120" width="290" height="20" as="geometry" />
        </mxCell>
        <mxCell id="R_mdDU6zKTO6Eg03_8yZ-52" value="" style="edgeStyle=orthogonalEdgeStyle;rounded=0;orthogonalLoop=1;jettySize=auto;html=1;" edge="1" parent="1" source="R_mdDU6zKTO6Eg03_8yZ-49" target="R_mdDU6zKTO6Eg03_8yZ-51">
          <mxGeometry relative="1" as="geometry" />
        </mxCell>
        <mxCell id="R_mdDU6zKTO6Eg03_8yZ-49" value="&lt;span style=&quot;color: rgb(50, 50, 50); font-family: 微软雅黑; font-size: 13px; background-color: rgba(255, 255, 255, 0.01);&quot;&gt;通过单例方式创建NacosConfigService&lt;/span&gt;" style="whiteSpace=wrap;html=1;rounded=0;" vertex="1" parent="1">
          <mxGeometry x="50" y="1169" width="290" height="40" as="geometry" />
        </mxCell>
        <mxCell id="R_mdDU6zKTO6Eg03_8yZ-54" value="" style="edgeStyle=orthogonalEdgeStyle;rounded=0;orthogonalLoop=1;jettySize=auto;html=1;" edge="1" parent="1" source="R_mdDU6zKTO6Eg03_8yZ-51" target="R_mdDU6zKTO6Eg03_8yZ-53">
          <mxGeometry relative="1" as="geometry" />
        </mxCell>
        <mxCell id="R_mdDU6zKTO6Eg03_8yZ-56" value="" style="edgeStyle=orthogonalEdgeStyle;rounded=0;orthogonalLoop=1;jettySize=auto;html=1;" edge="1" parent="1" source="R_mdDU6zKTO6Eg03_8yZ-51" target="R_mdDU6zKTO6Eg03_8yZ-55">
          <mxGeometry relative="1" as="geometry" />
        </mxCell>
        <mxCell id="R_mdDU6zKTO6Eg03_8yZ-51" value="public NacosConfigService(Properties properties) throws NacosException {&lt;br&gt;&lt;div&gt;this.agent..这里用了装饰模式封装远程请求&lt;/div&gt;&lt;div&gt;&amp;nbsp; &amp;nbsp; &amp;nbsp; &amp;nbsp; this.worker = new ClientWorker(this.agent, this.configFilterChainManager, propert&lt;/div&gt;&lt;div&gt;&lt;b&gt;init ();&amp;nbsp;&lt;/b&gt;&lt;/div&gt;&lt;div&gt;&lt;div&gt;this.executor //每10ms检测本地配置&lt;/div&gt;&lt;div&gt;&amp;nbsp; &amp;nbsp; &amp;nbsp;&amp;nbsp;&lt;/div&gt;&lt;div&gt;&amp;nbsp; &amp;nbsp; &amp;nbsp; &amp;nbsp;&amp;nbsp;&lt;/div&gt;&lt;div&gt;&amp;nbsp; &amp;nbsp; &amp;nbsp; &amp;nbsp; this.executorService 执行长轮询的线程&lt;/div&gt;&lt;/div&gt;}&lt;br&gt;&lt;br&gt;装饰模式更多的是扩展功能 继承关系的替代方案, 和代理模式不一样，代理模式是给对象提供代理对象，并由代理对象控制原有对象的引用 前者重在添加功能 后者重在对代理对象加以控制" style="whiteSpace=wrap;html=1;rounded=0;" vertex="1" parent="1">
          <mxGeometry x="20" y="1240" width="360" height="430" as="geometry" />
        </mxCell>
        <mxCell id="R_mdDU6zKTO6Eg03_8yZ-53" value="ClientWorker构造方法里有个init方法&lt;br&gt;&lt;div&gt;private void init(Properties properties) {&lt;/div&gt;&lt;div&gt;&amp;nbsp; &amp;nbsp; &amp;nbsp; &amp;nbsp; timeout =30000 发送给服务端让其持有连接30秒在响应给客户端&lt;/div&gt;&lt;div&gt;&amp;nbsp; &amp;nbsp; &amp;nbsp; &amp;nbsp; taskPenaltyTime =...&lt;/div&gt;&lt;div&gt;&amp;nbsp; &amp;nbsp; &amp;nbsp; &amp;nbsp; this.enableRemoteSyncConfig=...&lt;/div&gt;" style="whiteSpace=wrap;html=1;rounded=0;" vertex="1" parent="1">
          <mxGeometry x="25" y="1760" width="350" height="140" as="geometry" />
        </mxCell>
        <mxCell id="R_mdDU6zKTO6Eg03_8yZ-58" value="" style="edgeStyle=orthogonalEdgeStyle;rounded=0;orthogonalLoop=1;jettySize=auto;html=1;" edge="1" parent="1" source="R_mdDU6zKTO6Eg03_8yZ-55" target="R_mdDU6zKTO6Eg03_8yZ-57">
          <mxGeometry relative="1" as="geometry" />
        </mxCell>
        <mxCell id="R_mdDU6zKTO6Eg03_8yZ-55" value="创建2个线程池&lt;br&gt;&lt;br&gt;第一个每10ms检测配置变更checkConfigInfo()&lt;br&gt;&amp;nbsp;第二个处理长轮询" style="whiteSpace=wrap;html=1;rounded=0;" vertex="1" parent="1">
          <mxGeometry x="580" y="1390" width="130" height="130" as="geometry" />
        </mxCell>
        <mxCell id="R_mdDU6zKTO6Eg03_8yZ-57" value="" style="whiteSpace=wrap;html=1;rounded=0;" vertex="1" parent="1">
          <mxGeometry x="795" y="1425" width="120" height="60" as="geometry" />
        </mxCell>
      </root>
    </mxGraphModel>
  </diagram>
</mxfile>
